<svg width="32" height="32" viewBox="0 0 32 32" fill="none" xmlns="http://www.w3.org/2000/svg">
<g id="noun-donation-4271012 1">
<path id="Vector" d="M23.5479 2.6665C22.5791 2.6665 21.6399 3.09753 20.8716 3.80066C19.2808 2.34942 16.8539 2.32439 15.3295 3.88607C13.7491 5.50545 13.7491 8.15345 15.3295 9.77283C17.0217 11.517 18.7229 13.2532 20.4203 14.9923C20.6701 15.2503 21.0772 15.2503 21.3273 14.9923C23.0202 13.2489 24.7284 11.5209 26.417 9.77283C27.9974 8.15345 27.9974 5.50545 26.417 3.88607C25.6274 3.07331 24.5895 2.6665 23.5479 2.6665ZM10.695 14.4637C10.6122 14.4657 10.5307 14.4862 10.4551 14.5212L4.86955 17.0513C4.70357 17.1266 4.56246 17.2496 4.46341 17.4056C4.36435 17.5616 4.31168 17.7435 4.31168 17.9297V27.3116C4.31216 27.6688 4.57141 27.9699 4.9174 28.0145L15.0742 29.3283C15.2051 29.3451 15.3375 29.3179 15.4537 29.2548L29.5325 21.6652C30.2537 21.2862 30.6667 20.5249 30.6667 19.7448C30.6667 19.3876 30.5809 19.0447 30.4151 18.73H30.4108C29.9327 17.8018 28.8599 17.3646 27.9055 17.7066V17.7108L15.8202 22.0779L13.7948 20.2323H16.1203C16.9652 20.2323 17.7183 19.6814 18.0136 18.8686L18.0179 18.8602C18.4137 17.7286 17.8 16.4521 16.6596 16.1265V16.1223L10.8829 14.489C10.8218 14.4702 10.7586 14.4625 10.695 14.4637ZM0.57601 17.6861C0.247662 17.6861 -0.00192479 18.0033 1.11858e-05 18.3415V27.1795C0.000252781 27.5412 0.28656 27.8341 0.639563 27.8339H2.46297C2.57073 27.8339 2.6739 27.7898 2.75 27.7118C2.82611 27.6336 2.86887 27.5279 2.86887 27.4177V18.1017C2.86887 17.872 2.68718 17.6858 2.46297 17.6858L0.57601 17.6861Z" fill="black"/>
</g>
</svg>
