<svg width="32" height="32" viewBox="0 0 32 32" fill="none" xmlns="http://www.w3.org/2000/svg">
<g id="house-outline-rounded">
<defs>
<linearGradient id="paint0_linear_2641_6391" x1="16" y1="4" x2="16" y2="28" gradientUnits="userSpaceOnUse">
<stop stop-color="#67D3B6"/>
<stop offset="1" stop-color="#0AB083"/>
</linearGradient>
</defs>
<path id="Vector" d="M13.1058 28H7.31758C6.90758 28 6.56366 27.8618 6.28582 27.5855C6.00799 27.3091 5.86955 26.9676 5.87052 26.5607V16.4858H3.41051C3.07286 16.4858 2.84374 16.3298 2.72315 16.018C2.60256 15.7061 2.67492 15.4423 2.94021 15.2264L15.0232 4.3958C15.2885 4.13193 15.6141 4 16 4C16.3858 4 16.7114 4.13193 16.9767 4.3958L21.7882 8.71364V6.41079C21.7882 6.003 21.9271 5.66093 22.205 5.38459C22.4828 5.10825 22.8262 4.97055 23.2353 4.97151H24.6823C25.0923 4.97151 25.4363 5.10969 25.7141 5.38603C25.9919 5.66237 26.1304 6.00396 26.1294 6.41079V12.5997L29.0597 15.2264C29.325 15.4423 29.3974 15.7061 29.2768 16.018C29.1562 16.3298 28.9271 16.4858 28.5894 16.4858H26.1294V26.5607C26.1294 26.9685 25.9905 27.3106 25.7127 27.5869C25.4348 27.8633 25.0914 28.001 24.6823 28H18.8941V20.8036C18.8941 20.3958 18.7552 20.0537 18.4773 19.7774C18.1995 19.501 17.8561 19.3634 17.447 19.3643H14.5529C14.1429 19.3643 13.799 19.5025 13.5211 19.7788C13.2433 20.0552 13.1049 20.3968 13.1058 20.8036V28ZM13.1058 13.6432H18.8941C18.8941 12.8756 18.6047 12.2456 18.0258 11.7534C17.447 11.2612 16.7717 11.0155 16 11.0165C15.2282 11.0165 14.5529 11.2626 13.9741 11.7548C13.3952 12.2471 13.1058 12.8765 13.1058 13.6432Z" fill="url(#paint0_linear_2641_6391)"/>
</g>

</svg>
