<svg width="32" height="32" viewBox="0 0 32 32" fill="none" xmlns="http://www.w3.org/2000/svg">
<defs>
<linearGradient id="paint0_linear_2641_6360" x1="16" y1="2.6665" x2="16" y2="29.3332" gradientUnits="userSpaceOnUse">
<stop stop-color="#FA8C74"/>
<stop offset="0.9999" stop-color="#CE3C1D"/>
<stop offset="1" stop-color="#CD3B1C"/>
</linearGradient>
</defs>
<path d="M14.6666 19.9998V22.6665C14.6666 23.0443 14.7946 23.3612 15.0506 23.6172C15.3066 23.8732 15.6231 24.0007 16 23.9998C16.3777 23.9998 16.6946 23.8718 16.9506 23.6158C17.2066 23.3598 17.3342 23.0434 17.3333 22.6665V19.9998H20C20.3777 19.9998 20.6946 19.8718 20.9506 19.6158C21.2066 19.3598 21.3342 19.0434 21.3333 18.6665C21.3333 18.2887 21.2053 17.9718 20.9493 17.7158C20.6933 17.4598 20.3769 17.3323 20 17.3332H17.3333V14.6665C17.3333 14.2887 17.2053 13.9718 16.9493 13.7158C16.6933 13.4598 16.3769 13.3323 16 13.3332C15.6222 13.3332 15.3053 13.4612 15.0493 13.7172C14.7933 13.9732 14.6657 14.2896 14.6666 14.6665V17.3332H12C11.6222 17.3332 11.3053 17.4612 11.0493 17.7172C10.7933 17.9732 10.6657 18.2896 10.6666 18.6665C10.6666 19.0443 10.7946 19.3612 11.0506 19.6172C11.3066 19.8732 11.6231 20.0007 12 19.9998H14.6666ZM5.33329 29.3332C4.59996 29.3332 3.97196 29.0718 3.44929 28.5492C2.92663 28.0265 2.66574 27.3989 2.66663 26.6665V10.6665C2.66663 9.93317 2.92796 9.30517 3.45063 8.78251C3.97329 8.25984 4.60085 7.99895 5.33329 7.99984H10.6666V5.33317C10.6666 4.59984 10.928 3.97184 11.4506 3.44917C11.9733 2.92651 12.6009 2.66562 13.3333 2.66651H18.6666C19.4 2.66651 20.028 2.92784 20.5506 3.45051C21.0733 3.97317 21.3342 4.60073 21.3333 5.33317V7.99984H26.6666C27.4 7.99984 28.028 8.26117 28.5506 8.78384C29.0733 9.30651 29.3342 9.93406 29.3333 10.6665V26.6665C29.3333 27.3998 29.072 28.0278 28.5493 28.5505C28.0266 29.0732 27.3991 29.3341 26.6666 29.3332H5.33329ZM13.3333 7.99984H18.6666V5.33317H13.3333V7.99984Z" fill="url(#paint0_linear_2641_6360)"/>
</svg>
