<svg width="32" height="32" viewBox="0 0 32 32" fill="none" xmlns="http://www.w3.org/2000/svg">
<defs>
<linearGradient id="paint0_linear_2641_6368" x1="15.3333" y1="4" x2="15.3333" y2="28" gradientUnits="userSpaceOnUse">
<stop stop-color="#6DBACF"/>
<stop offset="1" stop-color="#0C93B8"/>
</linearGradient>
</defs>
<g id="scales-fill">
<path id="Vector" d="M29.2583 16.625L25.2583 6.625L25.1958 6.5125L25.1208 6.4125C25.1083 6.4 25.1083 6.4 25.1083 6.3875L25.0083 6.2875C25.0049 6.2875 25.0018 6.28618 24.9994 6.28384C24.9971 6.28149 24.9958 6.27832 24.9958 6.275L24.9083 6.2125L24.8833 6.1875L24.7708 6.125H24.7458L24.6458 6.0875H24.6208L24.4958 6.0625H24.1208L16.3333 7.75V5C16.3333 4.73478 16.2279 4.48043 16.0404 4.29289C15.8528 4.10536 15.5985 4 15.3333 4C15.068 4 14.8137 4.10536 14.6261 4.29289C14.4386 4.48043 14.3333 4.73478 14.3333 5V8.2L6.12075 10.025H6.03325L5.90825 10.075H5.88325L5.78325 10.125C5.78325 10.1266 5.78293 10.1283 5.7823 10.1298C5.78167 10.1313 5.78075 10.1327 5.77959 10.1338C5.77843 10.135 5.77705 10.1359 5.77554 10.1365C5.77402 10.1372 5.77239 10.1375 5.77075 10.1375L5.65825 10.225C5.65825 10.2283 5.65693 10.2315 5.65459 10.2338C5.65225 10.2362 5.64907 10.2375 5.64575 10.2375L5.57075 10.325H5.55825C5.52502 10.3563 5.49937 10.3948 5.48325 10.4375L5.45825 10.4625L5.40825 10.575H5.39575L1.40825 20.625C1.35936 20.744 1.33389 20.8713 1.33325 21C1.33325 23.9125 4.39575 25 6.33325 25C8.27075 25 11.3333 23.9125 11.3333 21C11.3326 20.8713 11.3071 20.744 11.2583 20.625L7.69575 11.725L14.3333 10.25V26H12.3333C12.068 26 11.8137 26.1054 11.6261 26.2929C11.4386 26.4804 11.3333 26.7348 11.3333 27C11.3333 27.2652 11.4386 27.5196 11.6261 27.7071C11.8137 27.8946 12.068 28 12.3333 28H18.3333C18.5985 28 18.8528 27.8946 19.0404 27.7071C19.2279 27.5196 19.3333 27.2652 19.3333 27C19.3333 26.7348 19.2279 26.4804 19.0404 26.2929C18.8528 26.1054 18.5985 26 18.3333 26H16.3333V9.8L22.6958 8.3875L19.4083 16.625C19.3594 16.744 19.3339 16.8713 19.3333 17C19.3333 19.9125 22.3958 21 24.3333 21C26.2708 21 29.3333 19.9125 29.3333 17C29.3326 16.8713 29.3071 16.744 29.2583 16.625ZM9.25825 21H3.40825L6.33325 13.6875L9.25825 21ZM21.4083 17L24.3333 9.6875L27.2583 17H21.4083Z" fill="url(#paint0_linear_2641_6368)"/>
</g>

</svg>
