<svg width="32" height="32" viewBox="0 0 32 32" fill="none" xmlns="http://www.w3.org/2000/svg">
<g id="shield-quarter 2">
<defs>
<linearGradient id="paint0_linear_2641_4649" x1="16" y1="2.66553" x2="16" y2="29.335" gradientUnits="userSpaceOnUse">
<stop stop-color="#FAD67D"/>
<stop offset="1" stop-color="#DAA623"/>
</linearGradient>
</defs>
<path id="Vector" d="M27.9933 9.19982C27.9712 8.97574 27.8925 8.76096 27.7647 8.57557C27.6369 8.39018 27.4642 8.24025 27.2627 8.13982L16.596 2.80648C16.4108 2.71379 16.2065 2.66553 15.9993 2.66553C15.7922 2.66553 15.5879 2.71379 15.4027 2.80648L4.736 8.13982C4.53504 8.24082 4.36282 8.39093 4.23533 8.57623C4.10783 8.76153 4.02918 8.97602 4.00667 9.19982C3.992 9.34248 2.72534 23.5558 15.4587 29.2185C15.6288 29.2953 15.8133 29.335 16 29.335C16.1867 29.335 16.3712 29.2953 16.5413 29.2185C29.2747 23.5558 28.008 9.34382 27.9933 9.19982ZM16 26.5291V15.9998H7.34667C6.82896 14.1043 6.58472 12.1445 6.62134 10.1798L16 5.49048V15.9998H24.6133C23.6013 19.6531 21.2827 23.9718 16 26.5291Z" fill="url(#paint0_linear_2641_4649)"/>
</g>
</svg>
